<svg xmlns="http://www.w3.org/2000/svg" viewBox="0 0 520 520" width="520" height="520" role="img" aria-label="Illustrated portrait"><rect width="520" height="520" fill="#FAEDDC"/><path d="M 0 135 L 520 119" stroke="#2F538B" stroke-width="1.5" opacity="0.10"/><path d="M 0 187 L 520 171" stroke="#2F538B" stroke-width="1.5" opacity="0.10"/><path d="M 0 239 L 520 223" stroke="#2F538B" stroke-width="1.5" opacity="0.10"/><circle cx="260" cy="226" r="179" fill="#FFFFFF" opacity="0.35"/><path d="M 72 226 C 72 387 110 387 166 387 L 354 387 C 410 387 448 387 448 226 A 188 188 0 0 0 72 226 Z" fill="#1B2A45"/><path d="M 220 301 h 81 v 94 h -81 Z" fill="#E8B98A"/><path d="M 220 325 h 81 v 25 h -81 Z" fill="#000000" opacity="0.12"/><path d="M 191 385 C 101 399 20 410 20 430 L 12 520 L 508 520 L 500 430 C 500 410 419 399 329 385 Z" fill="#2F538B"/><path d="M 207 383 L 260 495 L 313 383 L 281 373 L 260 423 L 239 373 Z" fill="#41659B"/><path d="M 134 190 A 126 126 0 0 1 386 190 C 386 311 325 363 260 363 C 195 363 134 311 134 190 Z" fill="#E8B98A"/><path d="M 179 193 Q 210 182 240 193" stroke="#1B2A45" stroke-width="9.4" fill="none" stroke-linecap="round"/><ellipse cx="210" cy="218" rx="14.1" ry="10.6" fill="#1B2A45"/><path d="M 280 193 Q 310 182 341 193" stroke="#1B2A45" stroke-width="9.4" fill="none" stroke-linecap="round"/><ellipse cx="310" cy="218" rx="14.1" ry="10.6" fill="#1B2A45"/><path d="M 260 231 v 33" stroke="#000000" stroke-width="6.3" opacity="0.20" fill="none" stroke-linecap="round"/><path d="M 221 289 Q 260 304 299 289" stroke="#8E5636" stroke-width="7.8" fill="none" stroke-linecap="round" opacity="0.85"/><rect x="172" y="187" width="76" height="62" rx="11" fill="none" stroke="#2F538B" stroke-width="7.8"/><rect x="273" y="187" width="76" height="62" rx="11" fill="none" stroke="#2F538B" stroke-width="7.8"/><path d="M 247 218 L 273 218" stroke="#2F538B" stroke-width="7.8"/><path d="M 122 178 C 122 42 398 42 398 178 C 359 117 301 132 260 132 C 219 132 161 117 122 178 Z" fill="#1B2A45"/></svg>