<svg xmlns="http://www.w3.org/2000/svg" viewBox="0 0 520 520" width="520" height="520" role="img" aria-label="Illustrated portrait"><rect width="520" height="520" fill="#FAEDDC"/><path d="M 0 135 L 520 119" stroke="#2F538B" stroke-width="1.5" opacity="0.10"/><path d="M 0 187 L 520 171" stroke="#2F538B" stroke-width="1.5" opacity="0.10"/><path d="M 0 239 L 520 223" stroke="#2F538B" stroke-width="1.5" opacity="0.10"/><circle cx="260" cy="220" r="183" fill="#FFFFFF" opacity="0.35"/><path d="M 219 298 h 82 v 87 h -82 Z" fill="#8E5636"/><path d="M 219 323 h 82 v 26 h -82 Z" fill="#000000" opacity="0.12"/><path d="M 189 386 C 111 400 35 410 35 430 L 27 520 L 493 520 L 485 430 C 485 410 409 400 331 386 Z" fill="#2F538B"/><path d="M 206 384 L 260 498 L 314 384 L 282 374 L 260 424 L 238 374 Z" fill="#41659B"/><path d="M 131 184 A 129 129 0 0 1 389 184 C 389 308 327 362 260 362 C 193 362 131 308 131 184 Z" fill="#8E5636"/><path d="M 142 267 C 149 371 196 377 260 377 C 324 377 371 371 378 267 C 337 326 183 326 142 267 Z" fill="#0E1F3D" opacity="0.9"/><path d="M 178 187 Q 209 175 239 187" stroke="#0E1F3D" stroke-width="9.6" fill="none" stroke-linecap="round"/><ellipse cx="209" cy="213" rx="14.4" ry="10.2" fill="#1B2A45"/><path d="M 281 187 Q 311 175 342 187" stroke="#0E1F3D" stroke-width="9.6" fill="none" stroke-linecap="round"/><ellipse cx="311" cy="213" rx="14.4" ry="10.2" fill="#1B2A45"/><path d="M 260 225 v 33" stroke="#000000" stroke-width="6.4" opacity="0.20" fill="none" stroke-linecap="round"/><path d="M 223 285 Q 260 300 297 285" stroke="#8E5636" stroke-width="8.0" fill="none" stroke-linecap="round" opacity="0.85"/><path d="M 126 171 C 126 48 394 48 394 161 C 327 115 233 148 126 171 Z" fill="#0E1F3D"/></svg>